<svg width="1200" height="630" viewBox="0 0 1200 630" fill="none" xmlns="http://www.w3.org/2000/svg">
  <defs>
    <linearGradient id="bg" x1="80" y1="40" x2="1120" y2="590" gradientUnits="userSpaceOnUse">
      <stop stop-color="#0F172A"/>
      <stop offset="0.45" stop-color="#111827"/>
      <stop offset="1" stop-color="#1D4ED8"/>
    </linearGradient>
    <linearGradient id="panel" x1="0" y1="0" x2="1" y2="1">
      <stop stop-color="#111827" stop-opacity="0.94"/>
      <stop offset="1" stop-color="#0F172A" stop-opacity="0.82"/>
    </linearGradient>
    <linearGradient id="accent" x1="0" y1="0" x2="1" y2="1">
      <stop stop-color="#38BDF8"/>
      <stop offset="1" stop-color="#8B5CF6"/>
    </linearGradient>
    <filter id="shadow" x="0" y="0" width="1200" height="630" filterUnits="userSpaceOnUse" color-interpolation-filters="sRGB">
      <feDropShadow dx="0" dy="24" stdDeviation="24" flood-color="#020617" flood-opacity="0.35"/>
    </filter>
  </defs>

  <rect width="1200" height="630" rx="32" fill="url(#bg)"/>
  <circle cx="153" cy="101" r="220" fill="#2563EB" fill-opacity="0.15"/>
  <circle cx="1040" cy="520" r="240" fill="#7C3AED" fill-opacity="0.18"/>
  <circle cx="990" cy="110" r="120" fill="#06B6D4" fill-opacity="0.12"/>

  <g filter="url(#shadow)">
    <rect x="54" y="56" width="1092" height="518" rx="28" fill="url(#panel)" stroke="rgba(255,255,255,0.12)"/>
  </g>

  <rect x="94" y="96" width="282" height="438" rx="22" fill="#0B1220" stroke="rgba(255,255,255,0.08)"/>
  <rect x="404" y="96" width="648" height="438" rx="22" fill="#0B1220" stroke="rgba(255,255,255,0.08)"/>
  <rect x="1080" y="96" width="26" height="438" rx="13" fill="#0B1220" stroke="rgba(255,255,255,0.08)"/>

  <rect x="122" y="132" width="112" height="112" rx="28" fill="url(#accent)"/>
  <path d="M145 188C145 188 171 152 215 152C259 152 285 188 285 188" stroke="white" stroke-width="16" stroke-linecap="round"/>
  <circle cx="181" cy="210" r="10" fill="white"/>
  <circle cx="215" cy="226" r="10" fill="white" fill-opacity="0.72"/>
  <circle cx="249" cy="210" r="10" fill="white" fill-opacity="0.45"/>

  <text x="122" y="294" fill="#E5F0FF" font-size="54" font-weight="800" font-family="Inter, Arial, sans-serif">CanvasFlow</text>
  <text x="122" y="340" fill="#93C5FD" font-size="22" font-weight="600" font-family="Inter, Arial, sans-serif" letter-spacing="0.08em">ONLINE INFINITE CANVAS EDITOR</text>
  <text x="122" y="402" fill="#CBD5E1" font-size="26" font-weight="500" font-family="Inter, Arial, sans-serif">Diagrams, whiteboards, wireframes,</text>
  <text x="122" y="440" fill="#CBD5E1" font-size="26" font-weight="500" font-family="Inter, Arial, sans-serif">visual planning, and vector design.</text>

  <rect x="442" y="136" width="572" height="56" rx="16" fill="#111827"/>
  <rect x="462" y="154" width="122" height="20" rx="10" fill="#334155"/>
  <rect x="604" y="154" width="84" height="20" rx="10" fill="#1D4ED8"/>
  <rect x="708" y="154" width="84" height="20" rx="10" fill="#334155"/>
  <rect x="812" y="154" width="84" height="20" rx="10" fill="#334155"/>

  <rect x="442" y="220" width="572" height="274" rx="24" fill="#07101D" stroke="rgba(148,163,184,0.18)"/>
  <path d="M508 322H948" stroke="#1E293B" stroke-width="2" stroke-dasharray="8 8"/>
  <path d="M728 254V458" stroke="#1E293B" stroke-width="2" stroke-dasharray="8 8"/>
  <rect x="542" y="266" width="142" height="92" rx="18" fill="#0EA5E9" fill-opacity="0.14" stroke="#38BDF8" stroke-width="3"/>
  <rect x="776" y="336" width="154" height="98" rx="18" fill="#8B5CF6" fill-opacity="0.16" stroke="#A78BFA" stroke-width="3"/>
  <circle cx="860" cy="266" r="44" fill="#10B981" fill-opacity="0.18" stroke="#34D399" stroke-width="3"/>
  <path d="M684 312C720 300 766 284 816 270" stroke="#CBD5E1" stroke-width="4" stroke-linecap="round"/>
  <path d="M684 338C722 356 764 378 808 394" stroke="#CBD5E1" stroke-width="4" stroke-linecap="round"/>
  <path d="M904 266L889 258L891 275L904 266Z" fill="#CBD5E1"/>

  <rect x="470" y="522" width="176" height="16" rx="8" fill="#0EA5E9" fill-opacity="0.45"/>
  <rect x="664" y="522" width="128" height="16" rx="8" fill="#E2E8F0" fill-opacity="0.2"/>
  <rect x="810" y="522" width="98" height="16" rx="8" fill="#E2E8F0" fill-opacity="0.2"/>
</svg>
